<svg xmlns="http://www.w3.org/2000/svg" version="1.1" xmlns:xlink="http://www.w3.org/1999/xlink" xmlns:svgjs="http://svgjs.dev/svgjs" viewBox="0 0 13.339719281860717 4.010160989742997"><g transform="matrix(0.7350022902642998,0,0,0.7350022902642998,4.75444364670301,1.5558103449474454)"><g transform="matrix(1,0,0,1,0,0)" clip-path="url(#SvgjsClipPath84894)"><g clip-path="url(#a3e34d385-02ca-4820-aac9-7f34acac1f367781c861-07ce-4dee-b274-8ddfb2a13fdf)"><path d=" M -1.2846056697151047 1.1726824573617987 L -3.306874552896994 1.1726824573617987 C -3.3256927582570746 1.1726824573617987 -3.3409479278468655 1.1574272877720073 -3.3409479278468655 1.1386090824119268 L -3.3409479278468655 -0.6368108711744463 C -3.340947927846866 -0.6556779465599123 -3.3256853086544442 -0.6708842461243179 -3.306874552896994 -0.6708842461243179 L -1.1548452467655106 -0.6708842461243179 C -1.1360344910080609 -0.6708842461243179 -1.1207718718156388 -0.6556779465599121 -1.1207718718156388 -0.6368108711744463 L -1.1207718718156388 0.9980352908831999 C -1.1207718718156388 1.0168534962432805 -1.1360270414054296 1.0321086658330718 -1.1548452467655106 1.0321086658330718 C -1.173663452125591 1.0321086658330718 -1.1889186217153824 1.0168534962432805 -1.1889186217153824 0.9980352908831999 L -1.1889186217153824 -0.6027374962245745 L -3.272801177947123 -0.6027374962245745 L -3.272801177947123 1.104535707462055 L -1.2846056697151047 1.104535707462055 C -1.2657874643550238 1.104535707462055 -1.2505322947652329 1.1197908770518463 -1.2505322947652329 1.1386090824119268 C -1.2505322947652329 1.1574272877720073 -1.2657874643550238 1.1726824573617987 -1.2846056697151047 1.1726824573617987" fill="#f9f9f9" transform="matrix(1,0,0,1,0,0)" fill-rule="nonzero"></path></g><g clip-path="url(#a3e34d385-02ca-4820-aac9-7f34acac1f367781c861-07ce-4dee-b274-8ddfb2a13fdf)"><path d=" M -1.1548452467655106 -0.33369863319062903 L -3.3068745528969945 -0.33369863319062903 C -3.3256927582570754 -0.33369863319062903 -3.340947927846866 -0.34895380278042 -3.340947927846866 -0.3677720081405007 C -3.340947927846866 -0.3865902135005814 -3.3256927582570754 -0.40184538309037243 -3.3068745528969945 -0.40184538309037243 L -1.1548452467655106 -0.40184538309037243 C -1.1360270414054296 -0.40184538309037243 -1.1207718718156388 -0.3865902135005815 -1.1207718718156388 -0.3677720081405007 C -1.1207718718156388 -0.34895380278042 -1.1360270414054296 -0.33369863319062903 -1.1548452467655106 -0.33369863319062903" fill="#f9f9f9" transform="matrix(1,0,0,1,0,0)" fill-rule="nonzero"></path></g><g clip-path="url(#a3e34d385-02ca-4820-aac9-7f34acac1f367781c861-07ce-4dee-b274-8ddfb2a13fdf)"><path d=" M -2.4220931967606565 0.3790262593558612 L -3.1051376453425474 0.3790262593558612 C -3.123955850702628 0.3790262593558612 -3.1392110202924193 0.3637710897660703 -3.1392110202924193 0.3449528844059896 C -3.1392110202924193 0.32613467904590876 -3.123955850702628 0.31087950945611786 -3.1051376453425474 0.31087950945611786 L -2.4220931967606565 0.31087950945611786 C -2.4032749914005755 0.31087950945611786 -2.3880198218107846 0.32613467904590876 -2.3880198218107846 0.3449528844059896 C -2.3880198218107846 0.3637710897660703 -2.4032749914005755 0.3790262593558612 -2.4220931967606565 0.3790262593558612" fill="#f9f9f9" transform="matrix(1,0,0,1,0,0)" fill-rule="nonzero"></path></g><g clip-path="url(#a3e34d385-02ca-4820-aac9-7f34acac1f367781c861-07ce-4dee-b274-8ddfb2a13fdf)"><path d=" M -2.4220931967606565 0.5577847586796508 L -3.1051376453425474 0.5577847586796508 C -3.123955850702628 0.5577847586796508 -3.1392110202924193 0.5425295890898597 -3.1392110202924193 0.523711383729779 C -3.1392110202924193 0.5048931783696983 -3.123955850702628 0.4896380087799074 -3.1051376453425474 0.4896380087799074 L -2.4220931967606565 0.4896380087799074 C -2.4032749914005755 0.4896380087799074 -2.3880198218107846 0.5048931783696983 -2.3880198218107846 0.523711383729779 C -2.3880198218107846 0.5425295890898597 -2.4032749914005755 0.5577847586796508 -2.4220931967606565 0.5577847586796508" fill="#f9f9f9" transform="matrix(1,0,0,1,0,0)" fill-rule="nonzero"></path></g><g clip-path="url(#a3e34d385-02ca-4820-aac9-7f34acac1f367781c861-07ce-4dee-b274-8ddfb2a13fdf)"><path d=" M -2.4220931967606565 0.736599577631457 L -3.1051376453425474 0.736599577631457 C -3.123971402938463 0.736599577631457 -3.1392391801064274 0.7213318004634927 -3.1392391801064274 0.702498042867577 C -3.1392391801064274 0.6836642852716616 -3.123971402938463 0.6683965081036972 -3.1051376453425474 0.6683965081036972 L -2.4220931967606565 0.6683965081036972 C -2.403259439164741 0.6683965081036972 -2.3879916619967765 0.6836642852716616 -2.3879916619967765 0.702498042867577 C -2.3879916619967765 0.7213318004634927 -2.403259439164741 0.736599577631457 -2.4220931967606565 0.736599577631457" fill="#f9f9f9" transform="matrix(1,0,0,1,0,0)" fill-rule="nonzero"></path></g><g clip-path="url(#a3e34d385-02ca-4820-aac9-7f34acac1f367781c861-07ce-4dee-b274-8ddfb2a13fdf)"><path d=" M -1.1811465130491308 1.5586408681576178 L -2.920859822473159 1.5586408681576178 C -2.9299063974835127 1.5586558211945984 -2.938587569402349 1.5550725603335818 -2.9449897528256104 1.548680941569435 C -2.9513919362488714 1.542289322805288 -2.9549895294089374 1.533614080575982 -2.954989517051047 1.524567493207746 L -2.954989517051047 1.1386090824119268 C -2.955498173264955 1.1260952080490796 -2.94911199734125 1.114307953428379 -2.9383515063964976 1.1078995513388583 C -2.9275910154517453 1.1014911492493376 -2.914184949122589 1.1014911492493376 -2.903424458177837 1.1078995513388583 C -2.8926639672330845 1.114307953428379 -2.8862777913093796 1.1260952080490796 -2.8867864475232876 1.1386090824119268 L -2.8867864475232876 1.4904941182578746 L -1.1811465130491308 1.4904941182578746 C -1.1623283076890498 1.4904941182578746 -1.147073138099259 1.5057492878476655 -1.147073138099259 1.524567493207746 C -1.147073138099259 1.543385698567827 -1.1623283076890498 1.5586408681576178 -1.1811465130491308 1.5586408681576178" fill="#f9f9f9" transform="matrix(1,0,0,1,0,0)" fill-rule="nonzero"></path></g><g clip-path="url(#a3e34d385-02ca-4820-aac9-7f34acac1f367781c861-07ce-4dee-b274-8ddfb2a13fdf)"><path d=" M -0.768886835969691 1.1463811910781785 C -0.7877050413297719 1.1463811910781785 -0.8029602109195628 1.1311260214883876 -0.8029602109195628 1.1123078161283066 L -0.8029602109195628 -0.21672276580073863 L -1.1548452467655106 -0.21672276580073863 C -1.1736790043614262 -0.21672276580073863 -1.1889467815293906 -0.23199054296870297 -1.1889467815293906 -0.2508243005646186 C -1.1889467815293906 -0.26965805816053395 -1.1736790043614262 -0.2849258353284983 -1.1548452467655106 -0.2849258353284983 L -0.768886835969691 -0.2849258353284983 C -0.759850015068499 -0.2849258353284985 -0.7511833188243258 -0.28133597220319384 -0.7447933214847247 -0.27494597486359285 C -0.738403324145124 -0.26855597752399185 -0.7348134610198196 -0.25988928127981836 -0.7348134610198196 -0.25085246037862674 L -0.7348134610198196 1.1123078161283066 C -0.7348134610198196 1.1311260214883876 -0.7500686306096105 1.1463811910781785 -0.768886835969691 1.1463811910781785" fill="#f9f9f9" transform="matrix(1,0,0,1,0,0)" fill-rule="nonzero"></path></g><g clip-path="url(#SvgjsClipPath848927781c861-07ce-4dee-b274-8ddfb2a13fdf)"><path d=" M -1.148278528428111 1.7789911265966327 L -0.9091453878708293 1.539857986039351 L -0.5555144435563757 1.8934326107257884 L -0.3999596309753084 1.737877798144721 L -0.7535342556617457 1.3843031734582838 L -0.5144011151044645 1.1451137132729863 L -1.3802027565993038 0.913133165473777 Z M -1.2838961926914023 1.0095523686377117 L -0.6461327250346298 1.1804824396672333 L -0.8499534588256803 1.3843031734582838 L -0.496378834139243 1.737877798144721 L -0.5555144435563757 1.7970134075618538 L -0.9091453878708293 1.4434951025034328 L -1.1129661216618802 1.6473158362944837 Z" fill="#0094ff" transform="matrix(1,0,0,1,0,0)" fill-rule="nonzero"></path></g><g clip-path="url(#SvgjsClipPath848927781c861-07ce-4dee-b274-8ddfb2a13fdf)"><path d=" M -3.0322592749678012 -0.1096360008703563 L -3.127890003339507 -0.1096360008703563 L -3.127890003339507 -0.18600541646048202 L -2.8438701192532214 -0.18600541646048202 L -2.8438701192532214 -0.1096360008703563 L -2.939951404649058 -0.1096360008703563 L -2.939951404649058 0.14205641673456382 L -3.0322592749678012 0.14205641673456382 Z" fill="#0094ff" transform="matrix(1,0,0,1,0,0)" fill-rule="nonzero"></path></g><g clip-path="url(#SvgjsClipPath848927781c861-07ce-4dee-b274-8ddfb2a13fdf)"><path d=" M -2.6070309404667684 0.08813086732611086 L -2.753743571449274 0.08813086732611086 L -2.775257669351507 0.14202875133772608 L -2.873704379124029 0.14202875133772608 L -2.726541191117393 -0.18603308185731976 L -2.6328253300982416 -0.18603308185731976 L -2.4861126991157363 0.14202875133772608 L -2.5854605229365193 0.14202875133772608 Z M -2.680133817631948 -0.09417576856270693 L -2.722317219016169 0.010297141407560884 L -2.638400973271857 0.010297141407560884 Z" fill="#0094ff" transform="matrix(1,0,0,1,0,0)" fill-rule="nonzero"></path></g><g clip-path="url(#SvgjsClipPath848927781c861-07ce-4dee-b274-8ddfb2a13fdf)"><path d=" M -2.3256714554055407 -0.07774493177844422 L -2.294751979624583 -0.13676790193954425 L -2.2647336178918858 -0.18599125682580525 L -2.1649352370469725 -0.18599125682580525 L -2.1649352370469725 -0.18086617067632038 L -2.2680564759448485 -0.02288961409055157 L -2.157895283544933 0.1382971612921473 L -2.157895283544933 0.1420705763692406 L -2.2586510980661236 0.1420705763692406 L -2.2891200168229515 0.0966206365600728 L -2.3256714554055407 0.03568279904641802 L -2.3627297706402772 0.0975217506083339 L -2.392691812744958 0.1420705763692406 L -2.493447627266149 0.1420705763692406 L -2.493447627266149 0.1382971612921473 L -2.383286434866233 -0.02288961409055157 L -2.486407673764109 -0.18086617067632044 L -2.486407673764109 -0.18599125682580525 L -2.3866092929191955 -0.18599125682580525 L -2.3561403741623685 -0.13586678789128326 Z" fill="#0094ff" transform="matrix(1,0,0,1,0,0)" fill-rule="nonzero"></path></g></g><g><path d=" M 0.18 1.1452499999999999 Q 0.0615 1.0574999999999999 0.0525 0.8939999999999999 L 0.366 0.8939999999999999 Q 0.3705 0.9494999999999999 0.399 0.9749999999999999 Q 0.4275 1.0005 0.47250000000000003 1.0005 Q 0.513 1.0005 0.53925 0.98025 Q 0.5655 0.96 0.5655 0.9239999999999999 Q 0.5655 0.8775 0.522 0.8519999999999999 Q 0.47850000000000004 0.8264999999999999 0.381 0.7949999999999999 Q 0.2775 0.7605 0.21375 0.7282499999999998 Q 0.15 0.696 0.10275000000000001 0.6337499999999999 Q 0.0555 0.5714999999999999 0.0555 0.47099999999999986 Q 0.0555 0.3689999999999999 0.1065 0.2962499999999999 Q 0.1575 0.22349999999999992 0.2475 0.18599999999999994 Q 0.3375 0.14849999999999985 0.4515 0.14849999999999985 Q 0.636 0.14849999999999985 0.74625 0.2347499999999999 Q 0.8565 0.32099999999999995 0.864 0.47699999999999987 L 0.5445 0.47699999999999987 Q 0.543 0.42899999999999994 0.51525 0.4049999999999999 Q 0.4875 0.3809999999999999 0.444 0.3809999999999999 Q 0.41100000000000003 0.3809999999999999 0.39 0.40049999999999986 Q 0.369 0.41999999999999993 0.369 0.45599999999999985 Q 0.369 0.4859999999999999 0.39225 0.5077499999999999 Q 0.41550000000000004 0.5294999999999999 0.45 0.5452499999999999 Q 0.4845 0.5609999999999999 0.552 0.5849999999999999 Q 0.6525 0.6194999999999999 0.71775 0.6532499999999999 Q 0.783 0.6869999999999999 0.83025 0.7477499999999999 Q 0.8775000000000001 0.8084999999999999 0.8775000000000001 0.9015 Q 0.8775000000000001 0.9959999999999999 0.83025 1.071 Q 0.783 1.146 0.69375 1.1895 Q 0.6045 1.2329999999999999 0.483 1.2329999999999999 Q 0.2985 1.2329999999999999 0.18 1.1452499999999999 M 1.03724267578125 0.26024999999999987 Q 0.98999267578125 0.2174999999999998 0.98999267578125 0.1529999999999998 Q 0.98999267578125 0.08699999999999997 1.03724267578125 0.04349999999999987 Q 1.08449267578125 0 1.16249267578125 0 Q 1.23899267578125 0 1.28624267578125 0.04349999999999987 Q 1.33349267578125 0.08699999999999997 1.33349267578125 0.1529999999999998 Q 1.33349267578125 0.2174999999999998 1.28624267578125 0.26024999999999987 Q 1.23899267578125 0.30299999999999994 1.16249267578125 0.30299999999999994 Q 1.08449267578125 0.30299999999999994 1.03724267578125 0.26024999999999987 M 1.3079926757812501 0.3809999999999999 L 1.3079926757812501 1.2225 L 1.01399267578125 1.2225 L 1.01399267578125 0.3809999999999999 L 1.3079926757812501 0.3809999999999999 M 2.8252177734375 0.4694999999999999 Q 2.9159677734375 0.5654999999999999 2.9159677734375 0.732 L 2.9159677734375 1.2225 L 2.6219677734375 1.2225 L 2.6219677734375 0.7709999999999999 Q 2.6219677734375 0.7034999999999999 2.5844677734375 0.6659999999999999 Q 2.5469677734375002 0.6285 2.4824677734375 0.6285 Q 2.4179677734375 0.6285 2.3804677734375 0.6659999999999999 Q 2.3429677734375 0.7034999999999999 2.3429677734375 0.7709999999999999 L 2.3429677734375 1.2225 L 2.0489677734375 1.2225 L 2.0489677734375 0.7709999999999999 Q 2.0489677734375 0.7034999999999999 2.0122177734375 0.6659999999999999 Q 1.9754677734375 0.6285 1.9109677734375001 0.6285 Q 1.8449677734375 0.6285 1.8074677734375 0.6659999999999999 Q 1.7699677734375001 0.7034999999999999 1.7699677734375001 0.7709999999999999 L 1.7699677734375001 1.2225 L 1.4759677734375 1.2225 L 1.4759677734375 0.3809999999999999 L 1.7699677734375001 0.3809999999999999 L 1.7699677734375001 0.4919999999999999 Q 1.8089677734375 0.43799999999999994 1.8712177734375 0.40574999999999994 Q 1.9334677734375 0.37349999999999994 2.0144677734375 0.37349999999999994 Q 2.1074677734375 0.37349999999999994 2.1802177734375 0.4139999999999999 Q 2.2529677734374998 0.4544999999999999 2.2949677734375 0.5279999999999999 Q 2.3399677734375 0.45899999999999985 2.4134677734375 0.4162499999999999 Q 2.4869677734374998 0.37349999999999994 2.5754677734375 0.37349999999999994 Q 2.7344677734375002 0.37349999999999994 2.8252177734375 0.4694999999999999 M 3.4679926757812503 0.4049999999999999 Q 3.53099267578125 0.37049999999999994 3.61649267578125 0.37049999999999994 Q 3.71699267578125 0.37049999999999994 3.79874267578125 0.42299999999999993 Q 3.88049267578125 0.4754999999999999 3.92774267578125 0.573 Q 3.97499267578125 0.6704999999999999 3.97499267578125 0.8009999999999999 Q 3.97499267578125 0.9315 3.92774267578125 1.02975 Q 3.88049267578125 1.128 3.79874267578125 1.1804999999999999 Q 3.71699267578125 1.2329999999999999 3.61649267578125 1.2329999999999999 Q 3.53099267578125 1.2329999999999999 3.46874267578125 1.1985 Q 3.40649267578125 1.164 3.37049267578125 1.1055 L 3.37049267578125 1.6244999999999998 L 3.07649267578125 1.6244999999999998 L 3.07649267578125 0.3809999999999999 L 3.37049267578125 0.3809999999999999 L 3.37049267578125 0.4979999999999999 Q 3.40499267578125 0.4394999999999999 3.4679926757812503 0.4049999999999999 M 3.6322426757812503 0.67275 Q 3.58799267578125 0.6269999999999999 3.52349267578125 0.6269999999999999 Q 3.45899267578125 0.6269999999999999 3.41474267578125 0.6734999999999999 Q 3.37049267578125 0.7199999999999999 3.37049267578125 0.8009999999999999 Q 3.37049267578125 0.8835 3.41474267578125 0.9299999999999999 Q 3.45899267578125 0.9764999999999999 3.52349267578125 0.9764999999999999 Q 3.58799267578125 0.9764999999999999 3.6322426757812503 0.9292499999999999 Q 3.67649267578125 0.8819999999999999 3.67649267578125 0.8009999999999999 Q 3.67649267578125 0.7184999999999999 3.6322426757812503 0.67275 M 4.390481689453125 0.11249999999999982 L 4.390481689453125 1.2225 L 4.096481689453125 1.2225 L 4.096481689453125 0.11249999999999982 L 4.390481689453125 0.11249999999999982 M 5.357956787109375 0.861 L 4.801456787109375 0.861 Q 4.805956787109375 0.9299999999999999 4.839706787109375 0.9637499999999999 Q 4.873456787109375 0.9974999999999999 4.925956787109375 0.9974999999999999 Q 4.999456787109375 0.9974999999999999 5.030956787109375 0.9315 L 5.344456787109375 0.9315 Q 5.324956787109375 1.0185 5.268706787109375 1.0867499999999999 Q 5.2124567871093745 1.1549999999999998 5.126956787109375 1.194 Q 5.041456787109375 1.2329999999999999 4.937956787109375 1.2329999999999999 Q 4.813456787109375 1.2329999999999999 4.716706787109375 1.1804999999999999 Q 4.619956787109375 1.128 4.565206787109375 1.0305 Q 4.510456787109375 0.9329999999999999 4.510456787109375 0.8009999999999999 Q 4.510456787109375 0.6689999999999999 4.564456787109375 0.5722499999999999 Q 4.618456787109375 0.4754999999999999 4.715206787109375 0.42299999999999993 Q 4.811956787109375 0.37049999999999994 4.937956787109375 0.37049999999999994 Q 5.062456787109375 0.37049999999999994 5.158456787109375 0.4214999999999999 Q 5.254456787109375 0.4724999999999999 5.308456787109375 0.5677499999999999 Q 5.362456787109375 0.6629999999999999 5.362456787109375 0.7919999999999999 Q 5.362456787109375 0.8264999999999999 5.357956787109375 0.861 M 5.062456787109375 0.7184999999999999 Q 5.062456787109375 0.6644999999999999 5.026456787109375 0.6337499999999999 Q 4.990456787109375 0.6029999999999999 4.936456787109375 0.6029999999999999 Q 4.882456787109375 0.6029999999999999 4.847956787109375 0.6322499999999999 Q 4.813456787109375 0.6614999999999999 4.802956787109375 0.7184999999999999 L 5.062456787109375 0.7184999999999999 M 6.565467041015625 0.1649999999999998 L 6.565467041015625 0.3989999999999999 L 6.283467041015625 0.3989999999999999 L 6.283467041015625 1.2225 L 5.989467041015625 1.2225 L 5.989467041015625 0.3989999999999999 L 5.710467041015625 0.3989999999999999 L 5.710467041015625 0.1649999999999998 L 6.565467041015625 0.1649999999999998 M 6.674222900390625 0.573 Q 6.721472900390625 0.4754999999999999 6.803222900390625 0.42299999999999993 Q 6.884972900390625 0.37049999999999994 6.985472900390625 0.37049999999999994 Q 7.072472900390625 0.37049999999999994 7.135472900390625 0.4049999999999999 Q 7.198472900390625 0.4394999999999999 7.232972900390625 0.4979999999999999 L 7.232972900390625 0.3809999999999999 L 7.526972900390625 0.3809999999999999 L 7.526972900390625 1.2225 L 7.232972900390625 1.2225 L 7.232972900390625 1.1055 Q 7.198472900390625 1.164 7.134722900390625 1.1985 Q 7.070972900390625 1.2329999999999999 6.985472900390625 1.2329999999999999 Q 6.884972900390625 1.2329999999999999 6.803222900390625 1.1804999999999999 Q 6.721472900390625 1.128 6.674222900390625 1.02975 Q 6.626972900390625 0.9315 6.626972900390625 0.8009999999999999 Q 6.626972900390625 0.6704999999999999 6.674222900390625 0.573 M 7.188722900390625 0.6734999999999999 Q 7.144472900390625 0.6269999999999999 7.079972900390625 0.6269999999999999 Q 7.013972900390625 0.6269999999999999 6.970472900390625 0.67275 Q 6.926972900390625 0.7184999999999999 6.926972900390625 0.8009999999999999 Q 6.926972900390625 0.8819999999999999 6.970472900390625 0.9292499999999999 Q 7.013972900390625 0.9764999999999999 7.079972900390625 0.9764999999999999 Q 7.144472900390625 0.9764999999999999 7.188722900390625 0.9299999999999999 Q 7.232972900390625 0.8835 7.232972900390625 0.8009999999999999 Q 7.232972900390625 0.7199999999999999 7.188722900390625 0.6734999999999999 M 8.2199619140625 1.2225 L 8.0684619140625 1.011 L 7.9484619140625 1.2225 L 7.6259619140625 1.2225 L 7.9064619140625 0.7859999999999999 L 7.6139619140625 0.3809999999999999 L 7.9439619140625 0.3809999999999999 L 8.0954619140625 0.5924999999999999 L 8.2169619140625 0.3809999999999999 L 8.5394619140625 0.3809999999999999 L 8.2529619140625 0.8099999999999998 L 8.5499619140625 1.2225 L 8.2199619140625 1.2225" fill="#ffffff" fill-rule="nonzero"></path></g><g></g></g><defs><clipPath id="SvgjsClipPath84894"><path d=" M -3.3409479278468663 -0.6709188168880104 h 2.9409479278468664 v 2.5643376337760206 h -2.9409479278468664 Z"></path></clipPath><clipPath id="a3e34d385-02ca-4820-aac9-7f34acac1f367781c861-07ce-4dee-b274-8ddfb2a13fdf"><path d=" M -3.3409479278468663 1.8934610567146217 L -0.39999327246281524 1.8934610567146217 L -0.39999327246281524 -0.6708842461243179 L -3.3409479278468663 -0.6708842461243179 Z"></path></clipPath><clipPath id="SvgjsClipPath848927781c861-07ce-4dee-b274-8ddfb2a13fdf"><path d=" M -3.3409479278468663 -0.6709188168880104 L -0.3999999999999999 -0.6709188168880104 L -0.3999999999999999 1.8934188168880102 L -3.3409479278468663 1.8934188168880102 Z"></path></clipPath></defs></svg>