<?xml version="1.0" standalone="no"?>
<!DOCTYPE svg PUBLIC "-//W3C//DTD SVG 20010904//EN"
 "http://www.w3.org/TR/2001/REC-SVG-20010904/DTD/svg10.dtd">
<svg version="1.0" xmlns="http://www.w3.org/2000/svg"
 width="512.000000pt" height="512.000000pt" viewBox="0 0 512.000000 512.000000"
 preserveAspectRatio="xMidYMid meet">

<g transform="translate(0.000000,512.000000) scale(0.100000,-0.100000)"
fill="#000000" stroke="none">
<path d="M1352 4469 c-175 -29 -320 -107 -457 -244 -141 -141 -215 -281 -244
-465 -15 -90 -15 -2310 0 -2400 29 -184 103 -324 244 -465 142 -142 284 -216
471 -245 47 -7 442 -10 1239 -8 l1170 3 72 23 c252 77 442 236 548 457 76 157
78 175 83 613 l3 392 -215 0 -215 0 -3 -372 -3 -373 -32 -67 c-44 -94 -109
-160 -202 -206 l-75 -37 -1175 0 -1176 0 -67 32 c-94 44 -160 109 -206 202
l-37 75 0 1175 0 1176 32 67 c44 94 109 160 202 206 l75 37 373 3 373 3 0 214
0 215 -362 -1 c-200 -1 -387 -5 -416 -10z"/>
<path d="M2990 4265 l0 -215 377 0 378 0 -668 -668 -667 -667 152 -153 153
-152 667 667 668 668 0 -378 0 -377 215 0 215 0 0 651 c0 487 -3 662 -12 693
-16 53 -81 118 -134 134 -31 9 -206 12 -693 12 l-651 0 0 -215z"/>
</g>
</svg>
